<?xml version="1.0" encoding="UTF-8"?>
<svg width="263px" height="40px" viewBox="0 0 263 40" version="1.1" xmlns="http://www.w3.org/2000/svg" xmlns:xlink="http://www.w3.org/1999/xlink">
    <!-- Generator: Sketch 64 (93537) - https://sketch.com -->
    <title>h1 embellishment</title>
    <desc>Created with Sketch.</desc>
    <g id="Design" stroke="none" stroke-width="1" fill="none" fill-rule="evenodd">
        <g id="Home" transform="translate(-589.000000, -325.000000)" fill="#FFFFFF">
            <g id="h1-embellishment" transform="translate(720.500000, 345.000000) rotate(180.000000) translate(-720.500000, -345.000000) translate(589.000000, 325.000000)">
                <path d="M138.815905,32.4607755 C137.535723,32.7753068 136.321871,32.8718023 135.284902,32.7966684 C134.235403,36.2668246 133.34952,37.1308648 132.022907,38.9944809 C131.859291,39.2213559 131.632293,39.342896 131.368444,39.342896 C131.107544,39.342896 130.880545,39.2213559 130.71693,38.9944809 C129.385894,37.1308648 128.504433,36.2668246 127.450512,32.7966684 C126.413543,32.8718023 125.204114,32.7753068 123.923932,32.4607755 C123.553954,32.3723827 123.297475,32.0372264 123.26431,31.6173603 C123.231145,31.1974943 123.43677,30.8196148 123.784637,30.6605077 C126.392907,29.4605746 128.78597,27.6934541 130.77589,25.4482755 C131.103121,25.083655 131.636715,25.083655 131.959524,25.4482755 C133.949444,27.6934541 136.34693,29.4605746 138.954462,30.6605077 C139.298645,30.8196148 139.505007,31.1974943 139.475526,31.6173603 C139.441624,32.0372264 139.18146,32.3723827 138.815905,32.4607755" id="Path"></path>
                <path d="M6.19639033,12.1046371 C3.87113175,12.1046371 1.98955167,10.2284987 1.98955167,7.90008355 C1.98955167,6.38046301 2.60274189,5.00006122 3.60212402,4.00564158 C4.59782112,3.01122194 5.97455108,2.39468176 7.49868253,2.39468176 L255.241154,2.39468176 C256.765285,2.39468176 258.142015,3.01122194 259.137712,4.00564158 C260.132672,5.00006122 260.750285,6.38046301 260.750285,7.90008355 C260.750285,10.2284987 258.868705,12.1046371 256.542709,12.1046371 C255.753374,12.1046371 255.035529,11.8232532 254.485721,11.3488782 C254.703138,11.2781639 254.917608,11.1647264 255.115126,11.017405 C256.160939,10.2498603 256.383515,8.78106569 255.614817,7.73655676 C254.842433,6.69499426 253.37284,6.47327551 252.331448,7.24082015 C252.012324,7.4721148 251.773534,7.77412372 251.609181,8.1011773 C251.172136,9.00352105 251.437458,10.1614675 251.831757,11.0343469 C252.369036,12.2386996 253.360311,13.2124943 254.602905,13.7155969 C255.202829,13.9594139 255.858766,14.0934764 256.542709,14.0934764 C259.964635,14.0934764 262.740205,11.3194139 262.740205,7.90008355 C262.740205,5.83095408 261.900016,3.9555523 260.543923,2.59945855 C259.187829,1.24483801 257.310671,0.405105867 255.241154,0.405105867 L7.49868253,0.405105867 C5.42842854,0.405105867 3.55200752,1.24483801 2.19591377,2.59945855 C0.839820015,3.9555523 -0.000368503735,5.83095408 -0.000368503735,7.90008355 C-0.000368503735,11.3194139 2.77520164,14.0934764 6.19639033,14.0934764 C6.88107027,14.0934764 7.53626991,13.9594139 8.13250896,13.7155969 C9.3795256,13.2080746 10.3663786,12.2386996 10.9080791,11.0343469 C11.2979561,10.1577844 11.5677008,9.00352105 11.1306554,8.1011773 C10.9707247,7.77412372 10.7275123,7.4721148 10.408388,7.24082015 C9.36699648,6.47327551 7.89740358,6.69499426 7.12501974,7.73655676 C6.35632095,8.78106569 6.57889721,10.2498603 7.62028877,11.017405 C7.82222881,11.1647264 8.03227594,11.2781639 8.25411519,11.3488782 C7.70430762,11.8232532 6.98646234,12.1046371 6.19639033,12.1046371 Z" id="Path"></path>
                <path d="M174.209952,10.6564675 C173.740478,10.5010434 173.253316,10.4347487 172.765417,10.447271 C171.536088,10.467896 170.460795,10.99678 169.662615,11.8107309 C167.613735,13.904905 167.823782,17.1150389 169.88077,19.1252398 C171.061456,20.2750835 172.648233,20.8791014 174.290285,20.8540568 C175.255028,20.8326952 176.208716,20.5977175 177.065119,20.161646 C178.467644,19.4478737 179.454497,18.277405 180.134755,16.8925835 C180.999264,15.1343023 181.09139,13.3679184 180.633709,11.7856862 C180.012411,9.64952551 178.41679,7.94575319 176.451928,6.97637819 C173.332913,5.4405523 170.368669,5.96501658 167.647637,7.47579783 C165.078429,8.91070855 162.76054,11.2398603 160.778727,13.5019809 C160.001921,14.3873827 159.225116,15.314771 158.453469,16.2421594 C157.457772,17.4376728 156.45839,18.6339228 155.362459,19.8338559 C154.42646,20.8584764 153.477931,21.8190121 152.499185,22.6580077 C151.529284,23.4933202 150.526216,24.2151952 149.472296,24.7772264 C147.826558,25.6545255 146.146181,26.1119585 144.521817,26.2209764 C142.767002,26.3469362 141.071148,26.0611327 139.546279,25.4740568 C137.098677,24.5172041 135.104335,22.7633425 133.992191,20.6021371 C132.967013,18.6169809 132.698743,16.2716237 133.525665,13.8835434 C133.849211,12.9524719 134.318685,12.0751728 134.911239,11.2951059 C135.910621,9.9684764 137.237235,8.92765051 138.723779,8.36119962 C140.184528,7.80727105 141.805944,7.71519515 143.408935,8.27354337 C144.152576,8.5247264 144.895479,8.91954783 145.625854,9.4734764 C146.903088,10.4303291 147.666627,11.8151505 147.872253,13.2795255 C148.077878,14.7483202 147.73001,16.2966684 146.768215,17.5680523 C146.033419,18.5418469 144.971391,19.1289228 143.850403,19.2887666 C143.736904,19.3012889 143.623404,19.3138112 143.509905,19.3226505 C143.867354,18.8350166 144.072979,18.2391014 144.072979,17.5975166 C144.072979,15.9777175 142.758895,14.6599273 141.137478,14.6599273 C139.516799,14.6599273 138.202714,15.9777175 138.202714,17.5975166 C138.202714,19.1672264 139.412881,20.2493023 140.722543,20.8076505 C141.813314,21.2695032 142.989578,21.4116684 144.123095,21.2525612 C145.74746,21.0220032 147.288543,20.1741684 148.351307,18.755463 C149.640333,17.043588 150.114229,14.9707755 149.837114,13.0069809 C149.56,11.0431862 148.531874,9.17588712 146.814647,7.88756122 C145.916235,7.21135587 144.987605,6.72519515 144.055291,6.40182462 C141.977667,5.67994962 139.894884,5.79780676 138.027307,6.50642283 C136.184051,7.20325319 134.54642,8.4827398 133.324462,10.1069585 C132.619146,11.0468693 132.04428,12.1090568 131.652929,13.2419585 C131.544589,13.5601728 131.447304,13.8791237 131.368444,14.1943916 C131.28811,13.8791237 131.195247,13.5601728 131.086907,13.2419585 C130.691871,12.1090568 130.120691,11.0468693 129.415374,10.1069585 C128.193416,8.4827398 126.555785,7.20325319 124.71253,6.50642283 C122.840531,5.79780676 120.76217,5.67994962 118.683809,6.40182462 C117.747809,6.72519515 116.823602,7.21135587 115.92519,7.88756122 C114.207962,9.17588712 113.175415,11.0431862 112.902722,13.0069809 C112.621185,14.9707755 113.095818,17.043588 114.388529,18.755463 C115.451294,20.1741684 116.992376,21.0220032 118.616741,21.2525612 C119.745836,21.4116684 120.926522,21.2695032 122.012871,20.8076505 C123.326956,20.2493023 124.540807,19.1672264 124.540807,17.5975166 C124.540807,15.9777175 123.223038,14.6599273 121.602358,14.6599273 C119.980942,14.6599273 118.666857,15.9777175 118.666857,17.5975166 C118.666857,18.2391014 118.872482,18.8350166 119.225509,19.3226505 C119.11201,19.3138112 119.002933,19.3012889 118.889434,19.2887666 C117.768445,19.1289228 116.706418,18.5418469 115.971621,17.5680523 C115.009826,16.2966684 114.661959,14.7483202 114.867584,13.2795255 C115.073209,11.8151505 115.836749,10.4303291 117.113983,9.4734764 C117.848779,8.91954783 118.587261,8.5247264 119.326479,8.27354337 C120.933892,7.71519515 122.550887,7.80727105 124.011636,8.36119962 C125.49818,8.92765051 126.828478,9.9684764 127.833019,11.2951059 C128.416729,12.0751728 128.890625,12.9524719 129.214171,13.8835434 C130.041094,16.2716237 129.768401,18.6169809 128.747646,20.6021371 C127.635501,22.7633425 125.641159,24.5172041 123.189135,25.4740568 C121.668689,26.0611327 119.972835,26.3469362 118.21802,26.2209764 C116.592918,26.1119585 114.908856,25.6545255 113.263119,24.7772264 C112.21362,24.2151952 111.210553,23.4933202 110.240651,22.6580077 C109.261905,21.8190121 108.308954,20.8584764 107.377377,19.8338559 C106.28071,18.6339228 105.282065,17.4376728 104.286368,16.2421594 C103.510299,15.314771 102.737915,14.3873827 101.956687,13.5019809 C99.9792959,11.2398603 97.6614074,8.91070855 95.0877773,7.47579783 C92.3711678,5.96501658 89.4069237,5.4405523 86.2879081,6.97637819 C84.3230462,7.94575319 82.7230029,9.64952551 82.1061277,11.7856862 C81.644024,13.3679184 81.740572,15.1343023 82.6013967,16.8925835 C83.2853396,18.277405 84.2721926,19.4478737 85.6747179,20.161646 C86.5311205,20.5977175 87.4848082,20.8326952 88.4451289,20.8540568 C90.0871816,20.8791014 91.6783807,20.2750835 92.8583297,19.1252398 C94.9160546,17.1150389 95.1216796,13.904905 93.0764839,11.8107309 C92.2783048,10.99678 91.2037479,10.467896 89.9699974,10.447271 C89.4865205,10.4347487 88.9956735,10.5010434 88.5298848,10.6564675 C87.3116115,11.0468693 86.1279775,11.8446148 86.1279775,13.2625835 C86.1279775,14.5590121 87.1818981,15.6123603 88.4790313,15.6123603 C89.7769015,15.6123603 90.8308221,14.5590121 90.8308221,13.2625835 C90.8308221,13.0231862 90.7924977,12.7926282 90.7254301,12.5790121 C91.0784566,12.7130746 91.3887368,12.9230077 91.6533225,13.1911327 C92.9335045,14.5089228 92.7492526,16.4601952 91.4727556,17.7021148 C90.6753136,18.4792353 89.5830685,18.8902621 88.4746092,18.8733202 C87.8238316,18.8607978 87.169369,18.6965344 86.57313,18.3901059 C85.5781699,17.8825835 84.8684317,17.0097041 84.3849548,16.0197041 C83.7555504,14.7394809 83.6796386,13.4680969 84.007607,12.3351952 C84.4741327,10.7404407 85.6953541,9.47789605 87.164947,8.75602105 C89.5874905,7.56419069 91.9473885,7.99657908 94.1259825,9.20903444 C96.4482931,10.5010434 98.606251,12.6791907 100.466458,14.8028291 C101.259478,15.7051728 102.011226,16.6075166 102.762973,17.5091237 C103.803628,18.7598827 104.853863,20.0150612 105.907784,21.1730077 C106.885793,22.2425612 107.88886,23.2583425 108.947203,24.1643693 C110.018075,25.0792353 111.139063,25.8850835 112.330804,26.5229853 C114.24555,27.5387666 116.194197,28.0713335 118.083147,28.2061327 C120.13645,28.3446148 122.118263,28.012405 123.906981,27.3199943 C126.807842,26.1870925 129.180269,24.097338 130.510567,21.5125835 C130.880545,20.7951282 131.170189,20.0356862 131.368444,19.2548827 C131.569647,20.0356862 131.859291,20.7951282 132.228532,21.5125835 C133.559567,24.097338 135.927572,26.1870925 138.832856,27.3199943 C140.621573,28.012405 142.603386,28.3446148 144.656689,28.2061327 C146.541217,28.0713335 148.494287,27.5387666 150.408295,26.5229853 C151.600773,25.8850835 152.721762,25.0792353 153.788211,24.1643693 C154.846554,23.2583425 155.854043,22.2425612 156.82763,21.1730077 C157.885973,20.0150612 158.931787,18.7598827 159.976863,17.5091237 C160.727874,16.6075166 161.480358,15.7051728 162.273379,14.8028291 C164.133585,12.6791907 166.291543,10.5010434 168.613854,9.20903444 C170.792448,7.99657908 173.147924,7.56419069 175.574889,8.75602105 C177.04006,9.47789605 178.265704,10.7404407 178.732229,12.3351952 C179.059461,13.4680969 178.984286,14.7394809 178.354145,16.0197041 C177.871405,17.0097041 177.161666,17.8825835 176.166706,18.3901059 C175.566045,18.6965344 174.915268,18.8607978 174.260805,18.8733202 C173.152346,18.8902621 172.060101,18.4792353 171.266344,17.7021148 C169.990584,16.4601952 169.80191,14.5089228 171.086514,13.1911327 C171.346678,12.9230077 171.66138,12.7130746 172.009984,12.5790121 C171.942917,12.7926282 171.909014,13.0231862 171.909014,13.2625835 C171.909014,14.5590121 172.962935,15.6123603 174.260805,15.6123603 C175.557938,15.6123603 176.607437,14.5590121 176.607437,13.2625835 C176.607437,11.8446148 175.427488,11.0468693 174.209952,10.6564675" id="Path"></path>
            </g>
        </g>
    </g>
</svg>