<?xml version="1.0" encoding="UTF-8"?>
<svg width="192px" height="52px" viewBox="0 0 192 52" version="1.1" xmlns="http://www.w3.org/2000/svg" xmlns:xlink="http://www.w3.org/1999/xlink">
    <!-- Generator: Sketch 64 (93537) - https://sketch.com -->
    <title>xrg logo</title>
    <desc>Created with Sketch.</desc>
    <defs>
        <polygon id="path-1" points="0 0 52 0 52 52 0 52"></polygon>
    </defs>
    <g id="Design" stroke="none" stroke-width="1" fill="none" fill-rule="evenodd">
        <g id="Home" transform="translate(-120.000000, -4307.000000)">
            <g id="Group-14" transform="translate(0.000000, 4208.000000)">
                <g id="xrg-logo" transform="translate(120.000000, 99.000000)">
                    <path d="M155.832801,37.1514943 C156.290697,37.1514943 156.719422,37.2063243 157.121628,37.3168685 C157.522066,37.4282971 157.880957,37.6237392 158.198302,37.9067324 L158.198302,37.9067324 L157.408918,38.7044195 C157.217097,38.5160522 156.984613,38.3727868 156.710582,38.2710862 C156.435668,38.1693855 156.14661,38.1189773 155.840757,38.1189773 C155.530484,38.1189773 155.248497,38.1738073 154.99745,38.2843515 C154.746403,38.3940113 154.528947,38.5470045 154.347733,38.7424467 C154.167403,38.9370045 154.027736,39.1642834 153.928732,39.4242834 C153.829727,39.6842834 153.781109,39.9655079 153.781109,40.2653039 C153.781109,40.5872086 153.829727,40.8843515 153.928732,41.1549637 C154.027736,41.4273447 154.167403,41.6616984 154.347733,41.8589093 C154.528947,42.0570045 154.746403,42.2135351 154.99745,42.3258481 C155.248497,42.4399297 155.530484,42.495644 155.840757,42.495644 C156.111251,42.495644 156.368486,42.4699977 156.608926,42.4195896 C156.847598,42.3674127 157.062402,42.2895896 157.248919,42.1825828 L157.248919,42.1825828 L157.248919,40.7649637 L156.019319,40.7649637 L156.019319,39.7983651 L158.317638,39.7983651 L158.317638,42.8697256 C157.575988,43.2650317 156.747709,43.463127 155.832801,43.463127 C155.369601,43.463127 154.943528,43.3879569 154.55635,43.2376168 C154.169171,43.088161 153.835031,42.8759161 153.555697,42.6017664 C153.275479,42.3276168 153.056254,41.9986372 152.898908,41.613059 C152.739793,41.2292494 152.66112,40.8021066 152.66112,40.3325147 C152.66112,39.8523107 152.739793,39.4154399 152.898908,39.0219025 C153.056254,38.6283651 153.275479,38.2940794 153.555697,38.0172766 C153.835031,37.7395896 154.169171,37.5264603 154.55635,37.3752358 C154.943528,37.22578 155.369601,37.1514943 155.832801,37.1514943 Z M179.998482,37.3033379 L179.998482,41.0706848 C179.998482,41.2174875 180.021466,41.3722494 180.066548,41.5323175 C180.11163,41.6932698 180.186768,41.8418413 180.291076,41.9771474 C180.395384,42.1142222 180.535052,42.2256508 180.707426,42.3132018 C180.878916,42.4016372 181.092836,42.4449705 181.347419,42.4449705 C181.602002,42.4449705 181.815039,42.4016372 181.987413,42.3132018 C182.159787,42.2256508 182.29857,42.1142222 182.403762,41.9771474 C182.507187,41.8418413 182.582324,41.6932698 182.627406,41.5323175 C182.673373,41.3722494 182.696356,41.2174875 182.696356,41.0706848 L182.696356,41.0706848 L182.696356,37.3033379 L183.764191,37.3033379 L183.764191,41.1042902 C183.764191,41.4668753 183.701429,41.7932018 183.577673,42.0841542 C183.453034,42.3759909 183.282427,42.62361 183.068507,42.826127 C182.854586,43.0295283 182.600003,43.1878277 182.306526,43.2983719 C182.01128,43.4089161 181.691283,43.4628617 181.347419,43.4628617 C181.002671,43.4628617 180.683558,43.4089161 180.389197,43.2983719 C180.095719,43.1878277 179.839368,43.0295283 179.621912,42.826127 C179.403571,42.62361 179.234733,42.3759909 179.112745,42.0841542 C178.991642,41.7932018 178.929764,41.4668753 178.929764,41.1042902 L178.929764,41.1042902 L178.929764,37.3033379 L179.998482,37.3033379 Z M108.372855,37.3033379 L108.372855,41.0706848 C108.372855,41.2174875 108.395838,41.3722494 108.440037,41.5323175 C108.485119,41.6932698 108.56114,41.8418413 108.665449,41.9771474 C108.769757,42.1142222 108.90854,42.2256508 109.080914,42.3132018 C109.253288,42.4016372 109.467209,42.4449705 109.720908,42.4449705 C109.975491,42.4449705 110.188528,42.4016372 110.361785,42.3132018 C110.534159,42.2256508 110.672059,42.1142222 110.776367,41.9771474 C110.881559,41.8418413 110.955813,41.6932698 111.001779,41.5323175 C111.046862,41.3722494 111.069845,41.2174875 111.069845,41.0706848 L111.069845,41.0706848 L111.069845,37.3033379 L112.137679,37.3033379 L112.137679,41.1042902 C112.137679,41.4668753 112.075802,41.7932018 111.952046,42.0841542 C111.825638,42.3759909 111.6568,42.62361 111.44288,42.826127 C111.228075,43.0295283 110.973492,43.1878277 110.67913,43.2983719 C110.385653,43.4089161 110.065656,43.4628617 109.720908,43.4628617 C109.37616,43.4628617 109.057047,43.4089161 108.762685,43.2983719 C108.469208,43.1878277 108.213741,43.0295283 107.994516,42.826127 C107.777944,42.62361 107.608222,42.3759909 107.487118,42.0841542 C107.36513,41.7932018 107.304136,41.4668753 107.304136,41.1042902 L107.304136,41.1042902 L107.304136,37.3033379 L108.372855,37.3033379 Z M86.5046094,37.1515828 C86.8219543,37.1515828 87.1278076,37.2002222 87.4248212,37.2957324 C87.7209508,37.3912426 87.9879095,37.549542 88.2265811,37.7706304 L88.2265811,37.7706304 L87.4460364,38.5939637 C87.3328884,38.4294739 87.1817297,38.3100862 86.9916763,38.2331474 C86.802507,38.1562086 86.6036139,38.1181814 86.3941132,38.1181814 C86.2694736,38.1181814 86.1492538,38.1314467 86.0343378,38.1615147 C85.9185379,38.1898141 85.8133456,38.2349161 85.7196448,38.2968209 C85.6268281,38.3587256 85.5516907,38.4400862 85.4960007,38.5382494 C85.4394266,38.6381814 85.4102557,38.7540317 85.4102557,38.8911066 C85.4102557,39.0945079 85.4818572,39.2501542 85.6232922,39.357161 C85.7638433,39.4641678 85.9397531,39.5579093 86.1483698,39.6366168 C86.3578705,39.7153243 86.5859345,39.792263 86.8352138,39.8656644 C87.0844931,39.9390658 87.3134411,40.0416508 87.5220578,40.1716508 C87.7315584,40.3007664 87.9065843,40.4740998 88.0480194,40.6889977 C88.1885705,40.9030113 88.259288,41.1886576 88.259288,41.5459365 C88.259288,41.8678413 88.200946,42.1490658 88.0816102,42.3904943 C87.9631583,42.6292698 87.8040439,42.8300181 87.602499,42.9883175 C87.401838,43.1457324 87.1684701,43.2642358 86.9032794,43.3438277 C86.6380887,43.4225351 86.3578705,43.4623311 86.0635088,43.4623311 C85.6904739,43.4623311 85.3315824,43.4004263 84.9868345,43.2766168 C84.6420865,43.1519229 84.3450729,42.9423311 84.0966776,42.6487256 L84.0966776,42.6487256 L84.9019734,41.8678413 C85.0319169,42.0668209 85.2034069,42.2189297 85.4146755,42.3294739 C85.6268281,42.4400181 85.8513562,42.4957324 86.0891439,42.4957324 C86.2137835,42.4957324 86.3384232,42.4780454 86.4621789,42.4453243 C86.5859345,42.4108345 86.6990826,42.3604263 86.801623,42.2914467 C86.9032794,42.2242358 86.9854885,42.1384535 87.0473664,42.0332154 C87.1092442,41.9288617 87.1401831,41.8094739 87.1401831,41.6723991 C87.1401831,41.4513107 87.0694656,41.2832834 86.9289145,41.1638957 C86.7865955,41.0453923 86.6124536,40.944576 86.402069,40.8632154 C86.1934523,40.7809705 85.9645043,40.7040317 85.716109,40.629746 C85.4668297,40.5563447 85.2387657,40.4555283 85.029265,40.3290658 C84.8188804,40.2008345 84.6447384,40.0319229 84.5033034,39.8187937 C84.3618683,39.6065488 84.2920348,39.3226712 84.2920348,38.967161 C84.2920348,38.6558685 84.3556806,38.3861406 84.4829721,38.1615147 C84.6093797,37.9342358 84.7764498,37.7467528 84.9824146,37.5964127 C85.1883794,37.4478413 85.4243992,37.3355283 85.6904739,37.2612426 C85.9565485,37.1887256 86.2279271,37.1515828 86.5046094,37.1515828 Z M172.418182,37.1518481 C172.888454,37.1456576 173.317179,37.2155215 173.707009,37.3596712 C174.097724,37.5038209 174.433632,37.7134127 174.716502,37.9919841 C174.999372,38.2679025 175.21948,38.6013039 175.377711,38.9930726 C175.536825,39.3830726 175.615499,39.8181746 175.615499,40.2983787 C175.615499,40.7688549 175.536825,41.1951134 175.377711,41.5789229 C175.21948,41.9645011 174.999372,42.2952494 174.716502,42.5729365 C174.433632,42.8497392 174.097724,43.0655215 173.707009,43.2211678 C173.317179,43.3768141 172.888454,43.4572902 172.418182,43.461712 C171.954983,43.461712 171.528909,43.3874263 171.142615,43.2379705 C170.755437,43.0885147 170.42218,42.8753855 170.141078,42.6021202 C169.861744,42.3279705 169.642519,41.9972222 169.484289,41.6142971 C169.326059,41.2287188 169.246501,40.801576 169.246501,40.3328685 C169.246501,39.85178 169.326059,39.4140249 169.484289,39.0222562 C169.642519,38.6296032 169.861744,38.2944331 170.141078,38.0158617 C170.42218,37.7399433 170.755437,37.5259297 171.142615,37.3764739 C171.528909,37.2261338 171.954983,37.1518481 172.418182,37.1518481 Z M189.42009,37.3047528 C189.70738,37.3047528 189.986714,37.3321678 190.254557,37.3887664 C190.523283,37.4462494 190.759303,37.5399909 190.9635,37.6735283 C191.166813,37.8061814 191.328579,37.9839365 191.450567,38.207678 C191.572555,38.4305351 191.632665,38.7091066 191.632665,39.0425079 C191.632665,39.4218957 191.567251,39.7278821 191.437307,39.9586984 C191.307364,40.1912834 191.132338,40.3699229 190.91223,40.4972698 C190.692121,40.6246168 190.43577,40.7112834 190.144061,40.7572698 C189.853235,40.8023719 189.550033,40.8244807 189.232688,40.8244807 L189.232688,40.8244807 L188.469823,40.8244807 L188.469823,43.3103991 L187.401989,43.3103991 L187.401989,37.3047528 Z M80.9760016,37.3047528 L80.9760016,38.2704671 L78.0668594,38.2704671 L78.0668594,39.7464535 L80.8230749,39.7464535 L80.8230749,40.7148209 L78.0668594,40.7148209 L78.0668594,42.3438005 L81.1280443,42.3438005 L81.1280443,43.3103991 L76.9990247,43.3103991 L76.9990247,37.3047528 L80.9760016,37.3047528 Z M71.4195003,37.3039569 C71.7076743,37.3039569 71.9861245,37.3313719 72.2548511,37.3835488 C72.5235777,37.4383787 72.7622494,37.5294671 72.97175,37.6603515 C73.1803667,37.7903515 73.3483209,37.9663379 73.4720765,38.186542 C73.5958322,38.406746 73.658594,38.6870862 73.658594,39.026678 C73.658594,39.46178 73.5374902,39.8261338 73.2979346,40.1206236 C73.057495,40.4151134 72.714515,40.5928685 72.2672267,40.6547732 L72.2672267,40.6547732 L73.8619069,43.3104875 L72.57308,43.3104875 L71.1825966,40.7653175 L70.4020519,40.7653175 L70.4020519,43.3104875 L69.3333333,43.3104875 L69.3333333,37.3039569 Z M163.98936,37.3039569 C164.278418,37.3039569 164.555985,37.3313719 164.825595,37.3835488 C165.093438,37.4383787 165.332109,37.5294671 165.54161,37.6603515 C165.751111,37.7903515 165.917297,37.9663379 166.041937,38.186542 C166.165692,38.406746 166.228454,38.6870862 166.228454,39.026678 C166.228454,39.46178 166.10735,39.8261338 165.867795,40.1206236 C165.627355,40.4151134 165.284375,40.5928685 164.837087,40.6547732 L164.837087,40.6547732 L166.431767,43.3104875 L165.142056,43.3104875 L163.752457,40.7653175 L162.971912,40.7653175 L162.971912,43.3104875 L161.904077,43.3104875 L161.904077,37.3039569 Z M101.750512,37.304576 L104.337006,43.3102222 L103.116245,43.3102222 L102.555808,41.9359365 L99.9534033,41.9359365 L99.4106462,43.3102222 L98.2155201,43.3102222 L100.826765,37.304576 L101.750512,37.304576 Z M133.302462,37.3043107 L136.210721,41.7658753 L136.2284,41.7658753 L136.2284,37.3043107 L137.296235,37.3043107 L137.296235,43.3099569 L135.939342,43.3099569 L132.970974,38.7042426 L132.954179,38.7042426 L132.954179,43.3099569 L131.886344,43.3099569 L131.886344,37.3043107 L133.302462,37.3043107 Z M126.306996,37.304576 L128.89349,43.3102222 L127.671845,43.3102222 L127.113176,41.9359365 L124.509887,41.9359365 L123.96713,43.3102222 L122.77112,43.3102222 L125.382365,37.304576 L126.306996,37.304576 Z M117.861556,37.3039569 C118.14973,37.3039569 118.42818,37.3313719 118.696907,37.3835488 C118.964749,37.4383787 119.204305,37.5294671 119.413806,37.6603515 C119.622422,37.7903515 119.788608,37.9663379 119.913248,38.186542 C120.037888,38.406746 120.10065,38.6870862 120.10065,39.026678 C120.10065,39.46178 119.979546,39.8261338 119.739106,40.1206236 C119.499551,40.4151134 119.155687,40.5928685 118.709282,40.6547732 L118.709282,40.6547732 L120.303078,43.3104875 L119.014252,43.3104875 L117.624652,40.7653175 L116.843224,40.7653175 L116.843224,43.3104875 L115.775389,43.3104875 L115.775389,37.3039569 Z M95.8316323,37.3033379 L95.8316323,38.2708209 L93.9920926,38.2708209 L93.9920926,43.3098685 L92.924258,43.3098685 L92.924258,38.2708209 L91.0829504,38.2708209 L91.0829504,37.3033379 L95.8316323,37.3033379 Z M145.09735,37.3033379 L145.09735,38.2708209 L143.256927,38.2708209 L143.256927,43.3098685 L142.189092,43.3098685 L142.189092,38.2708209 L140.348668,38.2708209 L140.348668,37.3033379 L145.09735,37.3033379 Z M172.427022,38.1175624 C172.116749,38.1175624 171.834763,38.174161 171.582832,38.2838209 C171.331784,38.3934807 171.115212,38.5464739 170.934882,38.7419161 C170.753669,38.9364739 170.613118,39.1646372 170.514113,39.4246372 C170.415992,39.6846372 170.36649,39.9649773 170.36649,40.2647732 C170.36649,40.586678 170.415992,40.8829365 170.514113,41.1553175 C170.613118,41.4268141 170.753669,41.6611678 170.934882,41.8601474 C171.115212,42.0582426 171.331784,42.2130045 171.582832,42.3262018 C171.834763,42.4393991 172.116749,42.4959977 172.427022,42.4959977 C172.737295,42.4959977 173.021049,42.4393991 173.275632,42.3262018 C173.528448,42.2130045 173.746788,42.0582426 173.928002,41.8601474 C174.107447,41.6611678 174.248882,41.4268141 174.347003,41.1553175 C174.446891,40.8829365 174.49551,40.586678 174.49551,40.2647732 C174.49551,39.9649773 174.446891,39.6846372 174.347003,39.4246372 C174.248882,39.1646372 174.107447,38.9364739 173.928002,38.7419161 C173.746788,38.5464739 173.528448,38.3934807 173.275632,38.2838209 C173.021049,38.174161 172.737295,38.1175624 172.427022,38.1175624 Z M101.258142,38.5762766 L100.317599,41.0188617 L102.183657,41.0188617 L101.258142,38.5762766 Z M125.814626,38.5762766 L124.874083,41.0188617 L126.739257,41.0188617 L125.814626,38.5762766 Z M189.232688,38.2209433 L188.469823,38.2209433 L188.469823,39.9091746 L189.114237,39.9091746 C189.267163,39.9091746 189.425394,39.9020998 189.589812,39.8906032 C189.753346,39.8808753 189.904505,39.8463855 190.042404,39.7897868 C190.181187,39.7331882 190.294335,39.6482902 190.381848,39.535093 C190.470245,39.4218957 190.51356,39.2635964 190.51356,39.060195 C190.51356,38.872712 190.473781,38.7250249 190.395108,38.6144807 C190.316435,38.5048209 190.213894,38.4199229 190.089255,38.3597868 C189.965499,38.3005351 189.825832,38.2625079 189.674673,38.2465896 C189.521746,38.2280181 189.374124,38.2209433 189.232688,38.2209433 L189.232688,38.2209433 Z M117.767855,38.2210317 L116.843224,38.2210317 L116.843224,39.8482426 L117.674154,39.8482426 C117.827081,39.8482426 117.980892,39.8429365 118.13205,39.8279025 C118.284977,39.8146372 118.424644,39.7801474 118.55282,39.7270862 C118.679227,39.6722562 118.781768,39.5900113 118.862209,39.4803515 C118.940882,39.3698073 118.980661,39.2159297 118.980661,39.0178345 C118.980661,38.8427324 118.943534,38.7012358 118.870165,38.5933447 C118.796795,38.4854535 118.70221,38.4058617 118.582875,38.3519161 C118.463539,38.2988549 118.332711,38.261712 118.186857,38.246678 C118.043654,38.2281066 117.903102,38.2210317 117.767855,38.2210317 L117.767855,38.2210317 Z M71.3266836,38.2210317 L70.4020519,38.2210317 L70.4020519,39.8482426 L71.2329829,39.8482426 C71.3859095,39.8482426 71.5388362,39.8429365 71.6908789,39.8279025 C71.8438055,39.8146372 71.9834726,39.7801474 72.1116481,39.7270862 C72.2380557,39.6722562 72.3405961,39.5900113 72.4210373,39.4803515 C72.4997106,39.3698073 72.5386052,39.2159297 72.5386052,39.0178345 C72.5386052,38.8427324 72.5014785,38.7012358 72.4281091,38.5933447 C72.3556236,38.4854535 72.2601549,38.4058617 72.1408191,38.3519161 C72.0214833,38.2988549 71.8906559,38.261712 71.7456849,38.246678 C71.601598,38.2281066 71.4619309,38.2210317 71.3266836,38.2210317 L71.3266836,38.2210317 Z M163.896544,38.2210317 L162.971912,38.2210317 L162.971912,39.8482426 L163.802843,39.8482426 C163.954886,39.8482426 164.108696,39.8429365 164.260739,39.8279025 C164.413666,39.8146372 164.553333,39.7801474 164.681508,39.7270862 C164.807916,39.6722562 164.91134,39.5900113 164.990897,39.4803515 C165.069571,39.3698073 165.109349,39.2159297 165.109349,39.0178345 C165.109349,38.8427324 165.071339,38.7012358 164.998853,38.5933447 C164.925484,38.4854535 164.830015,38.4058617 164.710679,38.3519161 C164.591343,38.2988549 164.4614,38.261712 164.315545,38.246678 C164.171458,38.2281066 164.031791,38.2210317 163.896544,38.2210317 L163.896544,38.2210317 Z M172.584545,8.08888889 C174.866954,8.08888889 176.85942,8.68052154 178.560176,9.86290249 C178.860726,10.0724943 179.011001,10.2679365 179.011001,10.4501134 C179.011001,10.5412018 178.960614,10.6597052 178.860726,10.8047392 L178.860726,10.8047392 L178.014767,11.951746 C177.887476,12.1330385 177.742505,12.224127 177.578087,12.224127 C177.477314,12.224127 177.332343,12.1524943 177.141406,12.0056916 C175.86849,11.069161 174.308285,10.5995692 172.461674,10.5995692 C170.196061,10.5995692 168.272544,11.3919501 166.69024,12.9749433 C165.087604,14.5853515 164.288496,16.5052834 164.288496,18.7347392 C164.288496,20.8739909 165.12473,22.781542 166.798084,24.4547392 C168.481161,26.1394331 170.405562,26.9795692 172.569518,26.9795692 C174.344528,26.9795692 175.86849,26.511746 177.141406,25.5743311 C177.332343,25.4292971 177.477314,25.35678 177.578087,25.35678 C177.732781,25.35678 177.878636,25.4478685 178.014767,25.629161 L178.014767,25.629161 L178.833323,26.8035828 C178.932327,26.9397732 178.982714,27.0582766 178.982714,27.1582086 C178.982714,27.349229 178.751114,27.5959637 178.287914,27.8948753 C176.649919,28.9596372 174.744082,29.4920181 172.569518,29.4920181 C169.595846,29.4920181 167.052667,28.4414059 164.942633,26.3392971 C162.831715,24.2371882 161.777139,21.729161 161.777139,18.8178685 C161.777139,15.8782766 162.829063,13.3569841 164.929373,11.2548753 C167.039407,9.1439229 169.591426,8.08888889 172.584545,8.08888889 Z M72.144355,8.30652834 L77.0698307,16.2241474 C77.0981177,16.2604059 77.1255207,16.2789773 77.1520398,16.2789773 C77.1882825,16.2789773 77.2201054,16.2604059 77.2475084,16.2241474 L77.2475084,16.2241474 L81.8865781,8.72924943 C82.0509964,8.44802494 82.2958558,8.30652834 82.6238083,8.30652834 L82.6238083,8.30652834 L84.5888716,8.30652834 C84.834615,8.30652834 84.9574867,8.40203855 84.9574867,8.59305896 C84.9574867,8.65673243 84.9300837,8.73455556 84.8752776,8.82564399 L84.8752776,8.82564399 L78.7891505,18.6127868 C78.7352284,18.6941474 78.7078254,18.763127 78.7078254,18.8179569 C78.7078254,18.8719025 78.7352284,18.9399977 78.7891505,19.023127 L78.7891505,19.023127 L84.8478745,28.7554399 C84.9026806,28.8465283 84.9300837,28.9190454 84.9300837,28.9738753 C84.9300837,29.1737392 84.807212,29.2745556 84.5614686,29.2745556 L84.5614686,29.2745556 L82.6512114,29.2745556 C82.3055795,29.2745556 82.0456926,29.1339433 81.8733186,28.8509501 L81.8733186,28.8509501 L77.2342489,21.4108821 C77.2068459,21.36578 77.175023,21.3436712 77.1387802,21.3436712 C77.1113772,21.3436712 77.0839742,21.36578 77.0565711,21.4108821 L77.0565711,21.4108821 L72.4042419,28.8509501 C72.230984,29.1339433 71.9764009,29.2745556 71.6396086,29.2745556 L71.6396086,29.2745556 L69.7019484,29.2745556 C69.457089,29.2745556 69.3333333,29.1737392 69.3333333,28.9738753 C69.3333333,28.9190454 69.3607364,28.8465283 69.4155425,28.7554399 L69.4155425,28.7554399 L75.487526,19.0355079 C75.5423321,18.9541474 75.5697351,18.8860522 75.5697351,18.8321066 C75.5697351,18.7852358 75.5423321,18.7215624 75.487526,18.6393175 L75.487526,18.6393175 L69.4155425,8.82564399 C69.3607364,8.73455556 69.3333333,8.65673243 69.3333333,8.59305896 C69.3333333,8.40203855 69.457089,8.30652834 69.7019484,8.30652834 L69.7019484,8.30652834 L72.144355,8.30652834 Z M91.328959,8.30750113 C93.0571185,8.30750113 94.4953362,8.88498413 95.6409601,10.0399501 C96.8237107,11.2417868 97.4142021,12.7611066 97.4142021,14.599678 C97.4142021,16.5187256 96.7821642,18.1026032 95.5180884,19.3504263 C94.3813042,20.4700181 92.9846331,21.0289297 91.328959,21.0289297 L91.328959,21.0289297 L89.4876514,21.0289297 C89.2869904,21.0200862 89.1915218,21.1164807 89.2012454,21.3163447 L89.2012454,21.3163447 L89.2012454,28.7006984 C89.2100851,29.0827392 89.0288715,29.2737596 88.6558365,29.2737596 L88.6558365,29.2737596 L87.2087791,29.2737596 C86.8357442,29.2737596 86.6536466,29.0827392 86.6624863,28.7006984 L86.6624863,28.7006984 L86.6624863,8.88056236 C86.6536466,8.49763719 86.8357442,8.30750113 87.2087791,8.30750113 L87.2087791,8.30750113 Z M109.395254,8.30723583 C109.767405,8.30723583 109.949502,8.49737188 109.940663,8.88029705 L109.940663,8.88029705 L109.940663,10.2448549 C109.949502,10.6268957 109.767405,10.8179161 109.395254,10.8179161 L109.395254,10.8179161 L102.449025,10.8179161 C102.258971,10.8179161 102.162619,10.9134263 102.162619,11.1053311 L102.162619,11.1053311 L102.162619,17.1932222 C102.162619,17.3930862 102.258971,17.4894807 102.449025,17.4806372 L102.449025,17.4806372 L109.395254,17.4806372 C109.767405,17.4806372 109.949502,17.6707732 109.940663,18.0528141 L109.940663,18.0528141 L109.940663,19.4182562 C109.949502,19.8002971 109.767405,19.9913175 109.395254,19.9913175 L109.395254,19.9913175 L102.449025,19.9913175 C102.258971,19.9913175 102.162619,20.0868277 102.162619,20.2778481 L102.162619,20.2778481 L102.162619,26.4753991 C102.162619,26.6664195 102.258971,26.7619297 102.449025,26.7619297 L102.449025,26.7619297 L109.395254,26.7619297 C109.767405,26.7619297 109.949502,26.9529501 109.940663,27.3358753 L109.940663,27.3358753 L109.940663,28.7013175 C109.949502,29.0824739 109.767405,29.2734943 109.395254,29.2734943 L109.395254,29.2734943 L100.198439,29.2734943 C99.8254045,29.2734943 99.6433069,29.0824739 99.6521466,28.7013175 L99.6521466,28.7013175 L99.6521466,8.88029705 C99.6433069,8.49737188 99.8254045,8.30723583 100.198439,8.30723583 L100.198439,8.30723583 Z M117.253916,8.30723583 C119.210139,8.30723583 120.802167,8.92097732 122.03,10.1493447 C123.240154,11.3600249 123.844789,12.9120658 123.844789,14.8036984 C123.844789,16.08778 123.5354,17.2206372 122.916621,18.2022698 C122.380052,19.07778 121.75155,19.7233583 121.033767,20.1416576 L121.033767,20.1416576 L120.242615,20.605059 C120.196649,20.6333583 120.169246,20.6970317 120.160406,20.7978481 L120.160406,20.7978481 L124.881685,28.755263 C124.936491,28.8463515 124.963894,28.9188685 124.963894,28.9736984 C124.963894,29.1735624 124.835718,29.2734943 124.581135,29.2734943 L124.581135,29.2734943 L122.698281,29.2734943 C122.362373,29.2734943 122.10779,29.1337664 121.933648,28.8507732 L121.933648,28.8507732 L117.418334,21.3841746 C117.354688,21.2842426 117.253916,21.2285283 117.117784,21.2205692 L117.117784,21.2205692 L114.689521,21.2205692 C114.48886,21.2205692 114.393392,21.3160794 114.403115,21.5070998 L114.403115,21.5070998 L114.403115,28.7013175 C114.411071,29.0824739 114.229857,29.2734943 113.856822,29.2734943 L113.856822,29.2734943 L112.410649,29.2734943 C112.037614,29.2734943 111.855516,29.0824739 111.86524,28.7013175 L111.86524,28.7013175 L111.86524,8.88029705 C111.855516,8.49737188 112.037614,8.30723583 112.410649,8.30723583 L112.410649,8.30723583 Z M128.565272,8.33447392 C128.938307,8.33447392 129.120405,8.52460998 129.111565,8.90753515 L129.111565,8.90753515 L129.111565,28.7011406 C129.120405,29.0822971 128.938307,29.2733175 128.565272,29.2733175 L128.565272,29.2733175 L127.147386,29.2733175 C126.774351,29.2733175 126.592253,29.0822971 126.601093,28.7011406 L126.601093,28.7011406 L126.601093,8.90753515 C126.592253,8.52460998 126.774351,8.33447392 127.147386,8.33447392 L127.147386,8.33447392 Z M141.119578,8.30723583 C141.491729,8.30723583 141.673826,8.49737188 141.664987,8.88029705 L141.664987,8.88029705 L141.664987,10.2448549 C141.673826,10.6268957 141.491729,10.8179161 141.119578,10.8179161 L141.119578,10.8179161 L134.174233,10.8179161 C133.982412,10.8179161 133.886943,10.9134263 133.886943,11.1053311 L133.886943,11.1053311 L133.886943,17.1932222 C133.886943,17.3930862 133.982412,17.4894807 134.174233,17.4806372 L134.174233,17.4806372 L141.119578,17.4806372 C141.491729,17.4806372 141.673826,17.6707732 141.664987,18.0528141 L141.664987,18.0528141 L141.664987,19.4182562 C141.673826,19.8002971 141.491729,19.9913175 141.119578,19.9913175 L141.119578,19.9913175 L134.174233,19.9913175 C133.982412,19.9913175 133.886943,20.0868277 133.886943,20.2778481 L133.886943,20.2778481 L133.886943,26.4753991 C133.886943,26.6664195 133.982412,26.7619297 134.174233,26.7619297 L134.174233,26.7619297 L141.119578,26.7619297 C141.491729,26.7619297 141.673826,26.9529501 141.664987,27.3358753 L141.664987,27.3358753 L141.664987,28.7013175 C141.673826,29.0824739 141.491729,29.2734943 141.119578,29.2734943 L141.119578,29.2734943 L131.922764,29.2734943 C131.549729,29.2734943 131.367631,29.0824739 131.376471,28.7013175 L131.376471,28.7013175 L131.376471,8.88029705 C131.367631,8.49737188 131.549729,8.30723583 131.922764,8.30723583 L131.922764,8.30723583 Z M159.25385,8.30723583 C159.626001,8.30723583 159.808098,8.49737188 159.799259,8.88029705 L159.799259,8.88029705 L159.799259,28.7013175 C159.808098,29.0824739 159.626001,29.2734943 159.25385,29.2734943 L159.25385,29.2734943 L157.150887,29.2734943 C156.833542,29.2734943 156.587799,29.1337664 156.414541,28.8507732 L156.414541,28.8507732 L146.549446,12.3611134 C146.522927,12.3053991 146.49464,12.2788685 146.468121,12.2788685 C146.430994,12.2788685 146.413315,12.315127 146.413315,12.3885283 L146.413315,12.3885283 L146.413315,28.7013175 C146.422155,29.0824739 146.240057,29.2734943 145.867022,29.2734943 L145.867022,29.2734943 L144.448252,29.2734943 C144.075217,29.2734943 143.893119,29.0824739 143.902843,28.7013175 L143.902843,28.7013175 L143.902843,8.90771202 C143.893119,8.52478685 144.075217,8.33465079 144.448252,8.33465079 L144.448252,8.33465079 L146.49464,8.33465079 C146.831432,8.33465079 147.086015,8.47437868 147.259273,8.75737188 L147.259273,8.75737188 L157.179174,25.3292766 C157.214533,25.3832222 157.243704,25.4106372 157.260499,25.4106372 C157.279063,25.4106372 157.287903,25.3832222 157.287903,25.3292766 L157.287903,25.3292766 L157.287903,8.88029705 C157.279063,8.49737188 157.46116,8.30723583 157.834195,8.30723583 L157.834195,8.30723583 Z M191.086902,8.30723583 C191.459053,8.30723583 191.641151,8.49737188 191.632311,8.88029705 L191.632311,8.88029705 L191.632311,10.2448549 C191.641151,10.6268957 191.459053,10.8179161 191.086902,10.8179161 L191.086902,10.8179161 L184.141557,10.8179161 C183.949736,10.8179161 183.855151,10.9134263 183.855151,11.1053311 L183.855151,11.1053311 L183.855151,17.1932222 C183.855151,17.3930862 183.949736,17.4894807 184.141557,17.4806372 L184.141557,17.4806372 L191.086902,17.4806372 C191.459053,17.4806372 191.641151,17.6707732 191.632311,18.0528141 L191.632311,18.0528141 L191.632311,19.4182562 C191.641151,19.8002971 191.459053,19.9913175 191.086902,19.9913175 L191.086902,19.9913175 L184.141557,19.9913175 C183.949736,19.9913175 183.855151,20.0868277 183.855151,20.2778481 L183.855151,20.2778481 L183.855151,26.4753991 C183.855151,26.6664195 183.949736,26.7619297 184.141557,26.7619297 L184.141557,26.7619297 L191.086902,26.7619297 C191.459053,26.7619297 191.641151,26.9529501 191.632311,27.3358753 L191.632311,27.3358753 L191.632311,28.7013175 C191.641151,29.0824739 191.459053,29.2734943 191.086902,29.2734943 L191.086902,29.2734943 L181.890088,29.2734943 C181.517053,29.2734943 181.334955,29.0824739 181.344679,28.7013175 L181.344679,28.7013175 L181.344679,8.88029705 C181.334955,8.49737188 181.517053,8.30723583 181.890088,8.30723583 L181.890088,8.30723583 Z M117.227396,10.7913855 L114.689521,10.7913855 C114.48886,10.7816576 114.393392,10.8771678 114.403115,11.0779161 L114.403115,11.0779161 L114.403115,18.4490045 C114.393392,18.6488685 114.48886,18.7443787 114.689521,18.7355351 L114.689521,18.7355351 L117.227396,18.7355351 C118.582521,18.7355351 119.62914,18.3269637 120.365487,17.5071678 C121.010784,16.7784603 121.334317,15.8737664 121.334317,14.7904331 C121.334317,13.5434943 120.915315,12.5379841 120.079081,11.7739025 C119.360414,11.1185964 118.410147,10.7913855 117.227396,10.7913855 L117.227396,10.7913855 Z M91.3837651,10.7907664 L89.4876514,10.7907664 C89.2869904,10.7819229 89.1915218,10.8774331 89.2012454,11.0781814 L89.2012454,11.0781814 L89.2012454,18.2582494 C89.1915218,18.4492698 89.2869904,18.54478 89.4876514,18.54478 L89.4876514,18.54478 L91.3837651,18.54478 C92.7026469,18.54478 93.6679412,18.0035556 94.2769958,16.9202222 C94.6951132,16.1826712 94.9037299,15.4000181 94.9037299,14.572263 C94.9037299,13.7807664 94.7136766,13.0476372 94.3318019,12.3737596 C93.7218633,11.31961 92.7397736,10.7907664 91.3837651,10.7907664 L91.3837651,10.7907664 Z" id="Combined-Shape" fill="#FFFFFF"></path>
                    <g id="Group-3">
                        <mask id="mask-2" fill="white">
                            <use xlink:href="#path-1"></use>
                        </mask>
                        <g id="Clip-2"></g>
                        <path d="M45.4892344,50.5695531 C44.7697656,49.9788656 39.2561406,43.1656469 34.1317031,36.8094594 L32.7853906,35.1397719 C30.9020156,32.7185219 27.2299219,29.1796781 25.4481094,27.5648344 C23.2299844,29.8629906 20.9891094,32.2025844 20.8026406,32.4430844 C20.4544844,32.8919906 6.16057813,50.2543031 5.45614063,50.5484281 C5.18314063,50.8742406 4.30320313,51.5786781 3.26239063,52.0344906 L47.4441094,52.0344906 C46.4487969,51.4498969 45.6627031,50.7694281 45.4892344,50.5695531 L45.4892344,50.5695531 Z M37.8200469,8.97727187 C37.4077031,9.38920937 37.2602344,9.91449062 37.4926094,10.1476781 C37.7127969,10.3678656 38.2007031,10.2447719 38.6000469,9.87670937 L38.6028906,9.87995937 L38.6626094,9.82024063 C39.4133594,9.09427187 45.9937969,2.75595937 48.9712031,-4.0625e-05 L46.4000469,-4.0625e-05 C43.4311719,3.15245937 38.7905781,7.98317812 37.8956094,8.90820937 C37.8704219,8.92689688 37.8452344,8.95208438 37.8200469,8.97727187 L37.8200469,8.97727187 Z M4.58514063,1.62942813 C4.91054688,1.95158438 5.23554688,2.27414688 5.55648437,2.60117812 C5.92820313,2.97899063 6.30520312,3.35274063 6.68179688,3.72608437 C7.06001563,4.10105312 7.43823438,4.47561562 7.81117188,4.85545937 C8.21701563,5.26861562 8.62814063,5.67649062 9.03967187,6.08395937 C9.45039063,6.49102187 9.86070312,6.89767812 10.2657344,7.31002187 C10.6857969,7.73780312 11.1115469,8.15908437 11.5368906,8.58158437 C11.9618281,9.00245937 12.3867656,9.42374062 12.8056094,9.84989687 C13.2203906,10.2719906 13.6404531,10.6879906 14.0601094,11.1043969 C14.4805781,11.5212094 14.9006406,11.9376156 15.3154219,12.3597094 C15.7074531,12.7590531 16.1047656,13.1523031 16.5024844,13.5467719 C16.8965469,13.9375844 17.2906094,14.3279906 17.6793906,14.7236781 C18.0283594,15.0787406 18.3813906,15.4289281 18.7348281,15.7791156 C19.0854219,16.1268656 19.4364219,16.4750219 19.7829531,16.8272406 C20.0701719,17.1193344 20.3610469,17.4077719 20.6519219,17.6966156 C20.9395469,17.9813969 21.2263594,18.2665844 21.5103281,18.5546156 C21.7195469,18.7670844 21.9307969,18.9767094 22.1424531,19.1867406 C22.3443594,19.3874281 22.5466719,19.5881156 22.7465469,19.7908344 C22.8850781,19.9309906 23.0248281,20.0703344 23.1649844,20.2096781 L23.3750156,20.4197094 C24.1265781,21.1704594 25.0633906,22.3806781 25.8905156,23.4483031 C25.9908594,23.5778969 26.0871406,23.7018031 26.1817969,23.8236781 C27.2421094,22.7942406 28.0858906,21.9699594 28.4173906,21.6384594 C28.9174844,21.1383656 29.2636094,20.4648031 29.5780469,19.8363344 C30.0501094,18.8926156 30.4494531,17.9078656 30.7988281,16.9101156 C31.1291094,15.9639594 31.2769844,14.9101469 31.7486406,14.0293969 C32.0460156,13.4797406 32.2458906,13.0771469 32.4486094,12.7062406 C32.8828906,11.9087719 33.4370156,11.1832094 34.0792969,10.5413344 L36.6715781,7.94824062 C36.6715781,7.94824062 41.4953906,3.29505312 44.9806094,-4.0625e-05 L2.95607812,-4.0625e-05 C3.17748437,0.219740625 3.39889063,0.439115625 3.61745312,0.661740625 C3.93717188,0.987146875 4.26095313,1.30808438 4.58514063,1.62942813 L4.58514063,1.62942813 Z M39.7858906,10.8866469 L39.7103281,10.9622094 C39.7042344,10.9622094 39.6977344,10.9683031 39.6977344,10.9748031 C39.3296719,11.3741469 39.2069844,11.8616469 39.4271719,12.0818344 C39.6473594,12.3020219 40.1348594,12.1793344 40.5346094,11.8112719 C40.5407031,11.8112719 40.5472031,11.8051781 40.5472031,11.7986781 L40.6227656,11.7235219 C40.6321094,11.7202719 40.6382031,11.7137719 40.6414531,11.7048344 C41.7850469,10.6067406 50.2768906,2.45370937 52.0343281,0.912803125 L52.0343281,-4.0625e-05 L50.1241406,-4.0625e-05 C47.8300469,2.50936563 40.8173594,9.81292812 39.8045781,10.8675531 C39.7952344,10.8708031 39.7891406,10.8773031 39.7858906,10.8866469 L39.7858906,10.8866469 Z M41.6887656,12.8463969 C41.6509844,12.8841781 41.6294531,12.9065219 41.6294531,12.9065219 L41.6322969,12.9093656 C41.2642344,13.3087094 41.1415469,13.7962094 41.3617344,14.0163969 C41.5945156,14.2491781 42.1202031,14.1017094 42.5317344,13.6893656 C42.5569219,13.6641781 42.5821094,13.6389906 42.6012031,13.6138031 C43.5790469,12.6672406 48.9236719,7.53305312 52.0343281,4.61617813 L52.0343281,1.96661563 C49.6723906,4.56174063 42.4659219,12.0432406 41.6887656,12.8463969 L41.6887656,12.8463969 Z M40.9684844,17.4301156 C40.3262031,18.0719906 39.6002344,18.6265219 38.8031719,19.0612094 C38.4314531,19.2631156 38.0300781,19.4633969 37.4804219,19.7607719 C36.5996719,20.2324281 35.5454531,20.3798969 34.5984844,20.7101781 C33.6015469,21.0599594 32.6167969,21.4593031 31.6734844,21.9309594 C31.0437969,22.2458031 30.3710469,22.5919281 29.8709531,23.0920219 C29.5268594,23.4353031 28.6526094,24.3314906 27.5691406,25.4482719 C30.1216094,27.9873344 35.0140781,32.6352406 35.5881094,33.1804281 C35.6384844,33.2279594 35.6864219,33.2706156 35.7392344,33.3161156 C36.9486406,34.3471781 47.6135156,43.4439281 49.7341406,45.3008969 C49.8543906,45.4061156 49.9681406,45.5178344 50.0737656,45.6323969 C50.9703594,46.6082094 51.6020781,47.4300531 52.0343281,48.1308344 L52.0343281,5.97305312 C48.7347656,9.47452187 43.5603594,14.8374281 43.5603594,14.8374281 L40.9684844,17.4301156 Z M19.0724219,30.7128656 C18.6235156,31.0606156 1.26120313,45.3549281 0.967078125,46.0593656 C0.750546875,46.2405531 0.367046875,46.6906781 -0.000203125,47.2764906 L-0.000203125,0.831553125 C0.111109375,1.15858437 0.227703125,1.46286563 0.332515625,1.72489688 C0.362984375,1.80086562 0.395484375,1.87399063 0.429203125,1.94833437 C0.471046875,2.03974063 0.518171875,2.14739688 0.573015625,2.27049063 C1.14379688,3.56074063 2.47954688,6.57958437 5.50489063,10.2882406 C6.06592188,11.1555844 17.3243281,23.1943969 18.1786719,23.8407406 C18.3501094,24.0077094 18.7632656,24.3217406 19.4067656,24.7743031 C19.8292656,25.0712719 20.2956406,25.2886156 20.7932969,25.4190219 C22.1912031,25.7862719 23.1263906,26.0844594 23.7012344,26.3083031 C21.4859531,28.4447719 19.3039844,30.5333031 19.0724219,30.7128656 L19.0724219,30.7128656 Z" id="Fill-1" fill="#FFFFFF" mask="url(#mask-2)"></path>
                    </g>
                </g>
            </g>
        </g>
    </g>
</svg>